normalP072_grf.mot
version=1
nRows=17
nColumns=19
inDegrees=yes
endheader
time	1_ground_force_vx	1_ground_force_vy	1_ground_force_vz	1_ground_force_px	1_ground_force_py	1_ground_force_pz	1_ground_torque_x	1_ground_torque_y	1_ground_torque_z	2_ground_force_vx	2_ground_force_vy	2_ground_force_vz	2_ground_force_px	2_ground_force_py	2_ground_force_pz	2_ground_torque_x	2_ground_torque_y	2_ground_torque_z
            1.702000	          -13.749389	          474.691159	            0.736053	            0.294906	            0.003130	           -0.218014	           -0.061075	            2.108578	            0.003270	           -0.007965	            0.288439	           -0.003066	            0.803739	            0.001545	           -0.312760	            0.007916	           -0.002338	           -0.124913
            1.703000	          -13.162484	          476.524358	            0.643191	            0.294975	            0.003129	           -0.217884	           -0.058492	            2.117584	            0.002858	           -0.031782	           -0.032209	            0.026295	            0.803739	            0.001545	           -0.312760	            0.041244	           -0.003330	            0.124782
            1.704000	          -12.553715	          478.036365	            0.618061	            0.295299	            0.003128	           -0.217945	           -0.055892	            2.128323	            0.002752	            0.006542	           -0.031654	            0.026244	            0.803739	            0.001545	           -0.312760	            0.074781	           -0.002253	            0.041729
            1.705000	          -11.943910	          479.870592	            0.578807	            0.295105	            0.003129	           -0.217886	           -0.053319	            2.142183	            0.002584	           -0.016281	            0.047699	           -0.035054	            0.803739	            0.001545	           -0.312760	            0.024421	           -0.005763	            0.145636
            1.706000	          -11.312517	          481.223637	            0.522456	            0.295597	            0.003127	           -0.217725	           -0.050227	            2.136594	            0.002320	           -0.023944	            0.047836	           -0.011963	            0.803739	            0.001545	           -0.312760	           -0.042634	           -0.004523	           -0.020761
            1.707000	          -10.640235	          483.456787	            0.362146	            0.295281	            0.003128	           -0.217865	           -0.047176	            2.143537	            0.001606	           -0.008065	            0.287907	            0.035071	            0.803739	            0.001545	           -0.312760	            0.007772	            0.004361	           -0.041474
            1.708000	           -9.938559	          485.288107	            0.315174	            0.295603	            0.003126	           -0.217599	           -0.043818	            2.139602	            0.001390	            0.014943	            0.286928	           -0.011115	            0.803739	            0.001545	           -0.312760	           -0.059271	           -0.001626	            0.082981
            1.709000	           -9.320976	          487.121557	            0.275937	            0.295497	            0.003127	           -0.217748	           -0.041011	            2.143246	            0.001214	           -0.000018	            0.448751	           -0.010524	            0.803739	            0.001545	           -0.312760	            0.108613	            0.000906	           -0.041675
            1.710000	           -8.588942	          488.874938	            0.113869	            0.295519	            0.003126	           -0.217581	           -0.037667	            2.143952	            0.000499	           -0.022831	            0.528454	           -0.017867	            0.803739	            0.001545	           -0.312760	            0.058235	            0.004717	           -0.062362
            1.711000	           -7.954543	          491.185076	           -0.007951	            0.295843	            0.003126	           -0.217759	           -0.034424	            2.125647	           -0.000034	           -0.000795	            0.127502	            0.003459	            0.803739	            0.001545	           -0.312760	           -0.025895	           -0.010299	            0.041645
            1.712000	           -7.383428	          492.860409	            0.005862	            0.295398	            0.003127	           -0.217760	           -0.032137	            2.145199	            0.000026	            0.015523	            0.528004	           -0.017977	            0.803739	            0.001545	           -0.312760	           -0.008976	           -0.007784	           -0.103908
            1.713000	           -6.658633	          494.693102	           -0.232521	            0.295547	            0.003126	           -0.217567	           -0.028587	            2.123856	           -0.000998	            0.022172	            0.127907	            0.003406	            0.803739	            0.001545	           -0.312760	            0.007695	           -0.002945	            0.000111
            1.714000	           -6.123188	          497.241626	           -0.161901	            0.296160	            0.003125	           -0.217660	           -0.026633	            2.162733	           -0.000704	           -0.037624	            0.768065	            0.021283	            0.803739	            0.001545	           -0.312760	            0.108562	           -0.000892	            0.041632
            1.715000	           -5.534190	          499.713839	           -0.244762	            0.295813	            0.003126	           -0.217846	           -0.023980	            2.165265	           -0.001061	           -0.008327	            0.207263	            0.019098	            0.803739	            0.001545	           -0.312760	           -0.076286	            0.003803	           -0.020495
            1.716000	           -4.944353	          502.503490	           -0.311141	            0.296132	            0.003125	           -0.217651	           -0.021508	            2.185882	           -0.001353	           -0.023866	            0.128421	            0.018564	            0.803739	            0.001545	           -0.312760	            0.041332	           -0.009170	           -0.041619
            1.717000	           -4.462399	          505.054914	           -0.286608	            0.296075	            0.003125	           -0.217542	           -0.019375	            2.192849	           -0.001244	           -0.008161	            0.288108	            0.026973	            0.803739	            0.001545	           -0.312760	            0.074987	            0.002858	            0.041510
            1.718000	           -3.890471	          506.968967	           -0.425055	            0.296014	            0.003124	           -0.217394	           -0.016935	            2.206851	           -0.001850	            0.007130	            0.287472	            0.019145	            0.803739	            0.001545	           -0.312760	           -0.025876	            0.006148	            0.000238
